<svg xmlns="http://www.w3.org/2000/svg" width="111.936" height="155" viewBox="0 0 111.936 155"><script xmlns="">window.freighter = true;</script><script xmlns=""/><path id="Path_15839" data-name="Path 15839" d="M-51.183,2.557V-19.987L1.491-68.758q6.72-6.5,11.308-11.705a44.623,44.623,0,0,0,6.973-10.224,25.026,25.026,0,0,0,2.384-10.874A20.74,20.74,0,0,0,19.193-112.8a19.775,19.775,0,0,0-8.092-7.3A25.659,25.659,0,0,0-.532-122.66a24.464,24.464,0,0,0-11.85,2.746,18.923,18.923,0,0,0-7.8,7.876,25.533,25.533,0,0,0-2.746,12.211h-29.7q0-14.523,6.575-25.217a43.911,43.911,0,0,1,18.425-16.546q11.85-5.853,27.312-5.853,15.9,0,27.71,5.6a44.2,44.2,0,0,1,18.389,15.5,40.06,40.06,0,0,1,6.575,22.688A43.959,43.959,0,0,1,49.07-87.111q-3.288,8.165-11.669,18.1A264.892,264.892,0,0,1,13.774-45.2L-7.83-24.033v1.012H54.309V2.557Z" transform="translate(55.128 149.943)" fill="#161616" stroke="#161616" stroke-linecap="round" stroke-width="5" opacity="0.05"/><script xmlns=""/></svg>