<svg xmlns="http://www.w3.org/2000/svg" width="116.616" height="155" viewBox="0 0 116.616 155"><script xmlns="">window.freighter = true;</script><script xmlns=""/><path id="Path_15836" data-name="Path 15836" d="M-.181,2.557q-15.97,0-28.41-5.525A47.815,47.815,0,0,1-48.2-18.225a38.051,38.051,0,0,1-7.379-22.493h31.084a15.919,15.919,0,0,0,3.529,9.375A21.07,21.07,0,0,0-12.3-25.1,32.023,32.023,0,0,0-.11-22.895a29.529,29.529,0,0,0,12.476-2.5,20.468,20.468,0,0,0,8.484-6.915A17.448,17.448,0,0,0,23.916-42.5a17.358,17.358,0,0,0-3.244-10.373A21.345,21.345,0,0,0,11.4-59.967,36.314,36.314,0,0,0-2.89-62.534H-16.507V-85.2H-2.89A29.841,29.841,0,0,0,9.479-87.629a19.814,19.814,0,0,0,8.377-6.737,17.247,17.247,0,0,0,2.994-10.088,17.867,17.867,0,0,0-2.6-9.66,17.791,17.791,0,0,0-7.272-6.523A23.863,23.863,0,0,0,.1-122.99a28.67,28.67,0,0,0-11.478,2.246,20.338,20.338,0,0,0-8.341,6.381,16.7,16.7,0,0,0-3.351,9.7H-52.652a38.016,38.016,0,0,1,7.2-22.243,46.973,46.973,0,0,1,18.857-15.078A63.582,63.582,0,0,1,.247-147.443q15.114,0,26.45,5.49A43.821,43.821,0,0,1,44.342-127.16a35.9,35.9,0,0,1,6.238,20.853q.071,12.262-7.593,20.461T23.061-75.437V-74.3q16.112,2.067,24.56,11.157T56-40.433a35.74,35.74,0,0,1-7.165,22.172Q41.6-8.565,28.907-3T-.181,2.557Z" transform="translate(58.118 149.943)" fill="#161616" stroke="#161616" stroke-linecap="round" stroke-width="5" opacity="0.05"/><script xmlns=""/></svg>