<svg xmlns="http://www.w3.org/2000/svg" width="113.873" height="155" viewBox="0 0 113.873 155"><script xmlns="">window.freighter = true;</script><script xmlns=""/><path id="Path_15838" data-name="Path 15838" d="M1.374,4.545q-15.318,0-27.276-5.636A47.489,47.489,0,0,1-44.868-16.625a39.9,39.9,0,0,1-7.3-22.688h30.347a18.463,18.463,0,0,0,7.225,13.945A24.866,24.866,0,0,0,1.374-20.021a25.531,25.531,0,0,0,13.042-3.288A23.274,23.274,0,0,0,23.3-32.485a27.815,27.815,0,0,0,3.215-13.548,27.83,27.83,0,0,0-3.288-13.728,23.743,23.743,0,0,0-9.068-9.249,26.58,26.58,0,0,0-13.223-3.4,31.125,31.125,0,0,0-12.608,2.673,22.809,22.809,0,0,0-9.5,7.3L-48.987-67.42l7.009-78.035H48.484v25.578H-16.184L-20.013-82.81h.867q3.9-5.491,11.777-9.1a41.8,41.8,0,0,1,17.63-3.613,45.436,45.436,0,0,1,23.844,6.286A45.34,45.34,0,0,1,50.652-72.008q6.069,10.947,6,25.181a50.034,50.034,0,0,1-6.9,26.553A48.892,48.892,0,0,1,30.312-2.066Q17.848,4.545,1.374,4.545Z" transform="translate(54.723 147.955)" fill="#161616" stroke="#161616" stroke-linecap="round" stroke-width="5" opacity="0.05"/><script xmlns=""/></svg>