<svg xmlns="http://www.w3.org/2000/svg" xmlns:xlink="http://www.w3.org/1999/xlink" id="Layer_2" viewBox="0 0 1920 824"><script xmlns="">window.freighter = true;</script><script xmlns=""/><defs><style>.cls-1,.cls-2,.cls-3,.cls-4,.cls-5,.cls-6,.cls-7{fill:none;}.cls-8{clip-path:url(#clippath);}.cls-9{fill:#fdcc68;}.cls-10{fill:#3157a4;}.cls-11{fill:#3dbcd1;}.cls-2,.cls-3,.cls-4,.cls-5,.cls-6,.cls-7,.cls-12,.cls-13,.cls-14,.cls-15,.cls-16,.cls-17{stroke-width:2px;}.cls-2,.cls-12{stroke:#3157a4;}.cls-3,.cls-13{stroke:#814896;}.cls-4,.cls-16{stroke:#ee7622;}.cls-5,.cls-15{stroke:#e85c96;}.cls-6,.cls-14{stroke:#3dbcd1;}.cls-7,.cls-17{stroke:#2dab61;}.cls-18{opacity:.4;}.cls-12,.cls-13,.cls-14,.cls-15,.cls-16,.cls-17{fill:#fff;}</style><clipPath id="clippath"><rect class="cls-1" width="1920" height="824"/></clipPath></defs><g id="Layer_1-2"><g class="cls-8"><g id="Mask_Group_78741"><g id="Group_86213" class="cls-18"><path id="Path_17847" class="cls-2" d="M-272.62,245.65S-27.84,164.69,381.14,383.93s1556.11,255.12,1781.73-123.76"/><path id="Path_17848" class="cls-5" d="M2162.87,714.97s-244.77,80.96-653.76-138.29C1100.13,357.43-47,321.55-272.62,700.44"/><path id="Path_17849" class="cls-7" d="M-272.62,329.65s975.71,524.02,1663.1,337.97c687.39-186.05,982.39-416.02,1195.64-327.57"/><path id="Path_17850" class="cls-4" d="M2548.45,250c-339,19.71-329.7,300.19-1356.02,78.84S-47.55,651.06-273.17,272.17"/><path id="Path_17851" class="cls-3" d="M-273.17,693.48c339-19.71,329.7-300.19,1356.02-78.84,1026.32,221.35,1239.99-322.22,1465.61,56.67"/><path id="Path_17852" class="cls-6" d="M2586.13,487.44S1610.41-36.58,923.03,149.47-59.36,565.49-272.62,477.04"/><circle id="Ellipse_10990" class="cls-13" cx="235.5" cy="546.7" r="9.5"/><circle id="Ellipse_10991" class="cls-17" cx="1186.5" cy="702.7" r="9.5"/><circle id="Ellipse_10992" class="cls-15" cx="1181.5" cy="469.7" r="9.5"/><circle id="Ellipse_10993" class="cls-16" cx="704.5" cy="274.7" r="9.5"/><circle id="Ellipse_10994" class="cls-14" cx="1558.5" cy="136.7" r="9.5"/><circle id="Ellipse_10995" class="cls-12" cx="714.5" cy="495.7" r="9.5"/></g></g></g><g id="Union_102"><path class="cls-1" d="M1573.83,85.9c8.84,0,16,7.16,16,16v68.2c0,8.84-7.16,16-16,16h-43.52l-24.25,18.1v-31.76c-.11-.78-.17-1.56-.17-2.34V101.89c0-8.84,7.16-16,16-16h51.93Z"/><path class="cls-9" d="M1521.9,85.89c-8.84,0-16,7.16-16,16v68.2c0,.8,.06,1.58,.17,2.34v31.76l24.25-18.1h43.52c8.84,0,16-7.16,16-16V101.89c0-8.84-7.16-16-16-16h-51.93m0-3h51.93c2.56,0,5.05,.5,7.4,1.49,2.26,.96,4.29,2.33,6.04,4.07,1.74,1.74,3.11,3.78,4.07,6.04,.99,2.34,1.49,4.83,1.49,7.4v68.2c0,2.56-.5,5.05-1.49,7.4-.96,2.26-2.33,4.29-4.07,6.04-1.74,1.74-3.78,3.11-6.04,4.07-2.34,.99-4.83,1.49-7.4,1.49h-42.52l-28.24,21.09v-37.54c-.11-.84-.17-1.7-.17-2.55V101.89c0-2.56,.5-5.05,1.49-7.4,.96-2.26,2.33-4.29,4.07-6.04,1.74-1.74,3.78-3.11,6.04-4.07,2.34-.99,4.83-1.49,7.4-1.49Z"/></g><g id="Union_101"><path class="cls-1" d="M1196.27,520.67h-45.27c-10.22,0-18.5-8.28-18.5-18.5h0v-71.67c0-10.22,8.28-18.5,18.5-18.5h52.93c10.22,0,18.5,8.28,18.5,18.5v71.67c0,.87-.06,1.75-.18,2.61v35.52l-25.98-19.63Z"/><path class="cls-11" d="M1222.25,540.3v-35.52c.12-.85,.18-1.72,.18-2.61v-71.67c0-10.22-8.28-18.5-18.5-18.5h-52.94c-10.22,0-18.5,8.28-18.5,18.5v71.67c0,10.22,8.28,18.5,18.5,18.5h45.27l25.98,19.63m3,6.03l-29.99-22.66h-44.27c-2.9,0-5.72-.57-8.37-1.69-2.56-1.08-4.86-2.63-6.83-4.61s-3.52-4.27-4.61-6.83c-1.12-2.65-1.69-5.47-1.69-8.37v-71.67c0-2.9,.57-5.72,1.69-8.37,1.08-2.56,2.63-4.86,4.61-6.83,1.97-1.97,4.27-3.52,6.83-4.61,2.65-1.12,5.47-1.69,8.37-1.69h52.94c2.9,0,5.72,.57,8.37,1.69,2.56,1.08,4.86,2.63,6.83,4.61,1.97,1.97,3.52,4.27,4.61,6.83,1.12,2.65,1.69,5.47,1.69,8.37v71.67c0,.94-.06,1.88-.18,2.81v41.35Z"/></g><g id="Union_99"><path class="cls-1" d="M735.98,256.4h-43.52c-8.84,0-16-7.16-16-16v-68.2c0-8.84,7.16-16,16-16h51.93c8.84,0,16,7.16,16,16v68.2c0,.79-.06,1.57-.17,2.35v31.75l-24.25-18.1Z"/><path class="cls-10" d="M760.23,274.5v-31.76c.11-.77,.17-1.55,.17-2.35v-68.2c0-8.84-7.16-16-16-16h-51.93c-8.84,0-16,7.16-16,16v68.2c0,8.84,7.16,16,16,16h43.52l24.25,18.1m3,5.98l-28.24-21.09h-42.52c-2.56,0-5.05-.5-7.4-1.49-2.26-.96-4.29-2.33-6.04-4.07-1.74-1.74-3.11-3.78-4.07-6.04-.99-2.34-1.49-4.83-1.49-7.4v-68.2c0-2.56,.5-5.05,1.49-7.4,.96-2.26,2.33-4.29,4.07-6.04,1.74-1.74,3.78-3.11,6.04-4.07,2.34-.99,4.83-1.49,7.4-1.49h51.93c2.56,0,5.05,.5,7.4,1.49,2.26,.96,4.29,2.33,6.04,4.07,1.74,1.74,3.11,3.78,4.07,6.04,.99,2.34,1.49,4.83,1.49,7.4v68.2c0,.85-.06,1.71-.17,2.56v37.53Z"/></g></g><script xmlns=""/></svg>